<?xml version="1.0" encoding="UTF-8"?>
<svg xmlns="http://www.w3.org/2000/svg" width="160" height="160" viewBox="0 0 160 160">
  <!-- Flat top-down authored tile. No baked shadow: the analytic
       building_shadow pass owns false shadows. -->
  <polygon data-role="roof_back" fill="#704233" points="28.80,44.80 99.20,44.80 99.20,67.20 28.80,67.20"/>
  <polygon data-role="roof_front" fill="#945740" points="28.80,67.20 99.20,67.20 99.20,89.60 28.80,89.60"/>
  <polygon data-role="ridge" fill="#a8694c" points="28.80,65.44 99.20,65.44 99.20,68.96 28.80,68.96"/>
  <polygon data-role="wall" fill="#c2b8a1" points="31.04,89.60 96.96,89.60 96.96,118.40 31.04,118.40"/>
  <polygon data-role="foundation" fill="#47423b" points="25.28,118.40 102.72,118.40 102.72,125.12 25.28,125.12"/>
  <polygon data-role="door" fill="#423024" points="56.00,96.00 72.00,96.00 72.00,118.40 56.00,118.40"/>
  <polygon data-role="metal" fill="#807d75" points="147.20,86.40 146.44,92.20 144.20,97.60 140.64,102.24 136.00,105.80 130.60,108.04 124.80,108.80 119.00,108.04 113.60,105.80 108.96,102.24 105.40,97.60 103.16,92.20 102.40,86.40 103.16,80.60 105.40,75.20 108.96,70.56 113.60,67.00 119.00,64.76 124.80,64.00 130.60,64.76 136.00,67.00 140.64,70.56 144.20,75.20 146.44,80.60"/>
  <polygon data-role="facility" fill="#7a7061" points="132.80,86.40 132.53,88.47 131.73,90.40 130.46,92.06 128.80,93.33 126.87,94.13 124.80,94.40 122.73,94.13 120.80,93.33 119.14,92.06 117.87,90.40 117.07,88.47 116.80,86.40 117.07,84.33 117.87,82.40 119.14,80.74 120.80,79.47 122.73,78.67 124.80,78.40 126.87,78.67 128.80,79.47 130.46,80.74 131.73,82.40 132.53,84.33"/>
  <polygon data-role="facility" fill="#7a7061" points="18.40,40.00 26.40,40.00 26.40,80.00 18.40,80.00"/>
  <polygon data-role="metal" fill="#807d75" points="16.16,35.20 28.64,35.20 28.64,40.00 16.16,40.00"/>
</svg>
